<svg xmlns="http://www.w3.org/2000/svg" data-name="Layer 1" viewBox="0 0 100 125" x="0px" y="0px"><title>12</title><g data-name="Group"><g data-name="Group"><path data-name="Compound Path" d="M49.5,66a16,16,0,1,1,16-16A16,16,0,0,1,49.5,66Zm0-30a14,14,0,1,0,14,14A14,14,0,0,0,49.5,36Z"/></g><g data-name="Group"><path data-name="Compound Path" d="M86.5,22a8,8,0,1,1,8-8A8,8,0,0,1,86.5,22Zm0-14a6,6,0,1,0,6,6A6,6,0,0,0,86.5,8Z"/></g><g data-name="Group"><path data-name="Compound Path" d="M13.5,94a8,8,0,1,1,8-8A8,8,0,0,1,13.5,94Zm0-14a6,6,0,1,0,6,6A6,6,0,0,0,13.5,80Z"/></g><g data-name="Group"><path data-name="Compound Path" d="M86.5,58a8,8,0,1,1,8-8A8,8,0,0,1,86.5,58Zm0-14a6,6,0,1,0,6,6A6,6,0,0,0,86.5,44Z"/></g><g data-name="Group"><path data-name="Compound Path" d="M49.5,93a8,8,0,1,1,8-8A8,8,0,0,1,49.5,93Zm0-14a6,6,0,1,0,6,6A6,6,0,0,0,49.5,79Z"/></g><g data-name="Group"><path data-name="Compound Path" d="M13.5,22a8,8,0,1,1,8-8A8,8,0,0,1,13.5,22Zm0-14a6,6,0,1,0,6,6A6,6,0,0,0,13.5,8Z"/></g><g data-name="Group"><rect data-name="Path" x="56.19" y="28.35" width="29.63" height="2" transform="translate(-0.09 58.49) rotate(-44.74)"/></g><g data-name="Group"><rect data-name="Path" x="64.18" y="50.9" width="15.03" height="2" transform="matrix(1, -0.07, 0.07, 1, -3.29, 4.88)"/></g><g data-name="Group"><rect data-name="Path" x="46.2" y="64.33" width="2" height="14.14" transform="translate(-9.62 7.39) rotate(-8.13)"/></g><g data-name="Group"><rect data-name="Path" x="14.17" y="69.75" width="28.88" height="2" transform="translate(-41.78 41.27) rotate(-45.26)"/></g><g data-name="Group"><rect data-name="Path" x="27.74" y="14.69" width="2" height="29.11" transform="translate(-12.26 28.89) rotate(-45)"/></g></g></svg>