<svg xmlns="http://www.w3.org/2000/svg" xmlns:xlink="http://www.w3.org/1999/xlink" version="1.1" x="0px" y="0px" viewBox="0 0 80 100" style="enable-background:new 0 0 80 80;" xml:space="preserve"><g><path d="M72,10.5h-7.5v12H72c0.55,0,1-0.45,1-1v-10C73,10.95,72.55,10.5,72,10.5z"/><path d="M62.5,10.5v12H26c-0.55,0-1-0.45-1-1v-10c0-0.55,0.45-1,1-1H62.5z"/><path d="M73,35v10c0,0.55-0.45,1-1,1H48V34h24C72.55,34,73,34.45,73,35z"/><path d="M26,46h20V34H26c-0.55,0-1,0.45-1,1v10C25,45.55,25.45,46,26,46z"/><path d="M72,57.5H57.5v12H72c0.55,0,1-0.45,1-1v-10C73,57.95,72.55,57.5,72,57.5z"/><path d="M55.5,57.5v12H26c-0.55,0-1-0.45-1-1v-10c0-0.55,0.45-1,1-1H55.5z"/><path d="M19.3,18.26C18,19.34,16.32,20,14.5,20s-3.5-0.66-4.8-1.74C8.09,19.21,7,20.96,7,22.97V25c0,0.55,0.45,1,1,1h13   c0.55,0,1-0.45,1-1v-2.03C22,20.96,20.91,19.21,19.3,18.26z"/><circle cx="14.5" cy="12.5" r="5.5"/><path d="M19.3,41.76c-1.3,1.09-2.97,1.74-4.8,1.74s-3.5-0.66-4.8-1.74C8.09,42.71,7,44.46,7,46.47v2.03c0,0.55,0.45,1,1,1h13   c0.55,0,1-0.45,1-1v-2.03C22,44.46,20.91,42.71,19.3,41.76z"/><circle cx="14.5" cy="36" r="5.5"/><path d="M19.3,65.26C18,66.34,16.32,67,14.5,67s-3.5-0.66-4.8-1.74C8.09,66.21,7,67.96,7,69.97V72c0,0.55,0.45,1,1,1h13   c0.55,0,1-0.45,1-1v-2.03C22,67.96,20.91,66.21,19.3,65.26z"/><circle cx="14.5" cy="59.5" r="5.5"/></g></svg>